<?xml version="1.0" encoding="UTF-8" standalone="no"?>
<svg
   width="321.13"
   zoomAndPan="magnify"
   viewBox="0 0 240.8475 210.2775"
   height="280.37"
   preserveAspectRatio="xMidYMid"
   version="1.0"
   id="svg225"
   sodipodi:docname="Logo_BestProfiles.svg"
   inkscape:version="1.3.2 (091e20e, 2023-11-25)"
   xmlns:inkscape="http://www.inkscape.org/namespaces/inkscape"
   xmlns:sodipodi="http://sodipodi.sourceforge.net/DTD/sodipodi-0.dtd"
   xmlns="http://www.w3.org/2000/svg"
   xmlns:svg="http://www.w3.org/2000/svg">
  <sodipodi:namedview
     id="namedview225"
     pagecolor="#000000"
     bordercolor="#000000"
     borderopacity="0.25"
     inkscape:showpageshadow="2"
     inkscape:pageopacity="0.0"
     inkscape:pagecheckerboard="0"
     inkscape:deskcolor="#323232"
     inkscape:zoom="0.91307725"
     inkscape:cx="237.65788"
     inkscape:cy="191.11198"
     inkscape:window-width="1440"
     inkscape:window-height="876"
     inkscape:window-x="0"
     inkscape:window-y="24"
     inkscape:window-maximized="0"
     inkscape:current-layer="svg225" />
  <defs
     id="defs4">
    <g
       id="g1" />
    <clipPath
       id="1a1efc9619">
      <path
         d="m 114,15.542969 h 26 V 50 h -26 z m 0,0"
         clip-rule="nonzero"
         id="path1" />
    </clipPath>
    <clipPath
       id="2fd1ec70d5">
      <path
         d="m 235,15.542969 h 26 V 50 h -26 z m 0,0"
         clip-rule="nonzero"
         id="path2" />
    </clipPath>
    <clipPath
       id="395d24d4f3">
      <path
         d="m 124.71484,52.6875 h 125.25 V 136 h -125.25 z m 0,0"
         clip-rule="nonzero"
         id="path3" />
    </clipPath>
    <clipPath
       id="a2cad1c2e3">
      <path
         d="m 145,145 h 85 v 5.1875 h -85 z m 0,0"
         clip-rule="nonzero"
         id="path4" />
    </clipPath>
  </defs>
  <path
     fill="#051d40"
     d="m 113.25781,183.53907 c 0,0 -3.0625,9.125 -21.527342,11.08984 -18.46875,1.97266 -26.34766,-1.96484 -26.34766,-1.96484 0,0 12.3125,-9.60156 24.13282,-10.09375 11.816402,-0.49609 23.742182,0.96875 23.742182,0.96875 z m 0,0"
     fill-opacity="1"
     fill-rule="nonzero"
     id="path5"
     style="fill:#ffffff" />
  <path
     fill="#051d40"
     d="m 113.25781,183.53907 c 0,0 1.39063,-9.54688 -13.902337,-20.08203 -15.296875,-10.53125 -24.101565,-10.82422 -24.101565,-10.82422 0,0 5.05469,13.00391 17.363285,20.62109 10.058587,6.22266 20.640617,10.28516 20.640617,10.28516 z m 0,0"
     fill-opacity="1"
     fill-rule="nonzero"
     id="path6"
     style="fill:#ffffff" />
  <path
     fill="#051d40"
     d="m 91.359378,176.78126 c 0,0 -9.41797,-4.25 -23.63672,-4.25 -14.22266,0 -24.92969,7.38672 -24.92969,7.38672 0,0 10.52344,4.24609 25.66797,4.24609 15.14062,0.004 22.89844,-7.38281 22.89844,-7.38281 z m 0,0"
     fill-opacity="1"
     fill-rule="nonzero"
     id="path7"
     style="fill:#ffffff" />
  <path
     fill="#051d40"
     d="m 73.953128,167.73438 c 0,0 -0.76563,-10.30469 -7.55469,-22.79687 -6.78516,-12.5 -18.38672,-18.38282 -18.38672,-18.38282 0,0 1.28906,11.27344 8.51953,24.58204 7.22656,13.30468 17.42188,16.59765 17.42188,16.59765 z m 0,0"
     fill-opacity="1"
     fill-rule="nonzero"
     id="path8"
     style="fill:#ffffff" />
  <path
     fill="#051d40"
     d="m 66.851558,166.44532 c 0,0 -8.16015,-6.33594 -21.98437,-9.66406 -13.82422,-3.33203 -25.964844,1.34375 -25.964844,1.34375 0,0 9.23828,6.59765 23.960934,10.14453 14.71875,3.54297 23.98828,-1.82422 23.98828,-1.82422 z m 0,0"
     fill-opacity="1"
     fill-rule="nonzero"
     id="path9"
     style="fill:#ffffff" />
  <path
     fill="#051d40"
     d="m 54.613278,155.46094 c 0,0 -5.08203,-8.99218 -16.54687,-17.40625 -11.464846,-8.41406 -24.464845,-8.79687 -24.464845,-8.79687 0,0 5.976562,9.65234 18.179685,18.61328 12.20703,8.95703 22.83203,7.58984 22.83203,7.58984 z m 0,0"
     fill-opacity="1"
     fill-rule="nonzero"
     id="path10"
     style="fill:#ffffff" />
  <path
     fill="#051d40"
     d="m 42.464848,136.96094 c 0,0 3.4375,-9.20703 2.53906,-22.70312 -0.89844,-13.5 -8.58203,-23.20314 -8.58203,-23.20314 0,0 -3.3711,10.26173 -2.41797,24.64064 0.96093,14.36719 8.46094,21.26562 8.46094,21.26562 z m 0,0"
     fill-opacity="1"
     fill-rule="nonzero"
     id="path11"
     style="fill:#ffffff" />
  <path
     fill="#051d40"
     d="m 32.816408,128.23829 c 0,0 -3.53516,-8.19531 -12.60547,-16.47656 C 11.136719,103.47657 0,101.95313 0,101.95313 c 0,0 4.2421877,8.83985 13.906251,17.66016 9.660155,8.8164 18.910157,8.625 18.910157,8.625 z m 0,0"
     fill-opacity="1"
     fill-rule="nonzero"
     id="path12"
     style="fill:#ffffff" />
  <path
     fill="#051d40"
     d="m 27.347656,110.07423 c 0,0 -0.4375,-8.91797 -6.03125,-19.85548 C 15.726563,79.281254 5.8359377,73.945314 5.8359377,73.945314 c 0,0 0.871094,9.765616 6.8281253,21.41406 5.953125,11.652356 14.683593,14.714856 14.683593,14.714856 z m 0,0"
     fill-opacity="1"
     fill-rule="nonzero"
     id="path13"
     style="fill:#ffffff" />
  <path
     fill="#051d40"
     d="m 23.527343,83.46875 c 0,0 0.765625,-8.890626 -3.30078,-20.484376 -4.070312,-11.58984 -13.1523443,-18.20703 -13.1523443,-18.20703 0,0 -0.449218,9.79688 3.8828133,22.13672 4.332031,12.34766 12.570311,16.554686 12.570311,16.554686 z m 0,0"
     fill-opacity="1"
     fill-rule="nonzero"
     id="path14"
     style="fill:#ffffff" />
  <path
     fill="#051d40"
     d="m 27.214843,65.937504 c 0,0 4.078125,-7.9336 4.710935,-20.20313 0.63281,-12.26953 -5.265622,-21.83594 -5.265622,-21.83594 0,0 -4.132813,8.89063 -4.808594,21.95313 -0.671875,13.07031 5.363281,20.08594 5.363281,20.08594 z m 0,0"
     fill-opacity="1"
     fill-rule="nonzero"
     id="path15"
     style="fill:#ffffff" />
  <path
     fill="#051d40"
     d="m 37.273438,44.843754 c 0,0 5.31641,-7.16797 7.93359,-19.17188 2.61328,-11.999998 -1.64843,-22.4023418 -1.64843,-22.4023418 0,0 -5.52344,8.1015618 -8.3086,20.8867218 -2.78516,12.78125 2.02344,20.6875 2.02344,20.6875 z m 0,0"
     fill-opacity="1"
     fill-rule="nonzero"
     id="path16"
     style="fill:#ffffff" />
  <path
     fill="#051d40"
     d="m 27.8125,98.632814 c 0,0 6.648438,-5.95313 11.617188,-17.19141 4.96875,-11.23437 2.87891,-22.27734 2.87891,-22.27734 0,0 -7.03907,6.83203 -12.32813,18.79297 C 24.6875,89.92187 27.8125,98.632814 27.8125,98.632814 Z m 0,0"
     fill-opacity="1"
     fill-rule="nonzero"
     id="path17"
     style="fill:#ffffff" />
  <path
     fill="#051d40"
     d="m 35.160158,58.472654 c 0,0 8.49609,-2.73437 17.60937,-10.97265 9.11328,-8.23828 11.69922,-19.17578 11.69922,-19.17578 0,0 -9.20703,3.3789 -18.91015,12.14843 -9.70704,8.77344 -10.39844,18 -10.39844,18 z m 0,0"
     fill-opacity="1"
     fill-rule="nonzero"
     id="path18"
     style="fill:#ffffff" />
  <g
     clip-path="url(#1a1efc9619)"
     id="g19"
     transform="translate(-67.023437,-15.601562)"
     style="fill:#ffffff">
    <path
       fill="#051d40"
       d="m 114.73828,49.496094 c 0,0 8.03906,-3.882813 15.92969,-13.289063 7.89062,-9.417969 8.94531,-20.605469 8.94531,-20.605469 0,0 -8.65234,4.609376 -17.05859,14.632813 -8.39844,10.027344 -7.81641,19.261719 -7.81641,19.261719 z m 0,0"
       fill-opacity="1"
       fill-rule="nonzero"
       id="path19"
       style="fill:#ffffff" />
  </g>
  <path
     fill="#051d40"
     d="m 114.53516,189.31251 c 0,12.35547 -20.328127,25.80468 -20.328127,19.23828 0,-6.56641 20.328127,-14.85938 20.328127,-19.23828 z m 0,0"
     fill-opacity="1"
     fill-rule="nonzero"
     id="path20"
     style="fill:#ffffff" />
  <path
     fill="#051d40"
     d="m 126.3125,189.31251 c 0,12.35547 20.32813,25.80468 20.32813,19.23828 0,-6.56641 -20.32813,-14.85938 -20.32813,-19.23828 z m 0,0"
     fill-opacity="1"
     fill-rule="nonzero"
     id="path21"
     style="fill:#ffffff" />
  <path
     fill="#051d40"
     d="m 127.58985,183.53907 c 0,0 3.0625,9.125 21.53125,11.08984 18.46484,1.97266 26.34375,-1.96484 26.34375,-1.96484 0,0 -12.3125,-9.60156 -24.12891,-10.09375 -11.82031,-0.49609 -23.74609,0.96875 -23.74609,0.96875 z m 0,0"
     fill-opacity="1"
     fill-rule="nonzero"
     id="path22"
     style="fill:#ffffff" />
  <path
     fill="#051d40"
     d="m 127.58985,183.53907 c 0,0 -1.39063,-9.54688 13.90625,-20.08203 15.29296,-10.53125 24.09765,-10.82422 24.09765,-10.82422 0,0 -5.05078,13.00391 -17.35937,20.62109 -10.0625,6.22266 -20.64453,10.28516 -20.64453,10.28516 z m 0,0"
     fill-opacity="1"
     fill-rule="nonzero"
     id="path23"
     style="fill:#ffffff" />
  <path
     fill="#051d40"
     d="m 149.48828,176.78126 c 0,0 9.41797,-4.25 23.63282,-4.25 14.22656,0 24.9375,7.38672 24.9375,7.38672 0,0 -10.52735,4.24609 -25.67188,4.24609 -15.14453,0.004 -22.89844,-7.38281 -22.89844,-7.38281 z m 0,0"
     fill-opacity="1"
     fill-rule="nonzero"
     id="path24"
     style="fill:#ffffff" />
  <path
     fill="#051d40"
     d="m 166.89844,167.73438 c 0,0 0.76172,-10.30469 7.54687,-22.79687 6.78907,-12.5 18.39063,-18.38282 18.39063,-18.38282 0,0 -1.29297,11.27344 -8.51563,24.58204 -7.23046,13.30468 -17.42187,16.59765 -17.42187,16.59765 z m 0,0"
     fill-opacity="1"
     fill-rule="nonzero"
     id="path25"
     style="fill:#ffffff" />
  <path
     fill="#051d40"
     d="m 174,166.44532 c 0,0 8.15625,-6.33594 21.98438,-9.66406 13.82422,-3.33203 25.96484,1.34375 25.96484,1.34375 0,0 -9.23828,6.59765 -23.96094,10.14453 C 183.26563,171.81251 174,166.44532 174,166.44532 Z m 0,0"
     fill-opacity="1"
     fill-rule="nonzero"
     id="path26"
     style="fill:#ffffff" />
  <path
     fill="#051d40"
     d="m 186.23438,155.46094 c 0,0 5.08203,-8.99218 16.54297,-17.40625 11.46875,-8.41406 24.46875,-8.79687 24.46875,-8.79687 0,0 -5.97266,9.65234 -18.17969,18.61328 -12.20703,8.95703 -22.83203,7.58984 -22.83203,7.58984 z m 0,0"
     fill-opacity="1"
     fill-rule="nonzero"
     id="path27"
     style="fill:#ffffff" />
  <path
     fill="#051d40"
     d="m 198.38281,136.96094 c 0,0 -3.4375,-9.20703 -2.53906,-22.70312 0.89844,-13.5 8.58594,-23.20314 8.58594,-23.20314 0,0 3.37109,10.26173 2.41016,24.64064 -0.95313,14.36719 -8.45704,21.26562 -8.45704,21.26562 z m 0,0"
     fill-opacity="1"
     fill-rule="nonzero"
     id="path28"
     style="fill:#ffffff" />
  <path
     fill="#051d40"
     d="m 208.03125,128.23829 c 0,0 3.53516,-8.19531 12.60547,-16.47656 9.07422,-8.28516 20.21094,-9.8086 20.21094,-9.8086 0,0 -4.2461,8.83985 -13.90625,17.66016 -9.66016,8.8164 -18.91016,8.625 -18.91016,8.625 z m 0,0"
     fill-opacity="1"
     fill-rule="nonzero"
     id="path29"
     style="fill:#ffffff" />
  <path
     fill="#051d40"
     d="m 213.4961,110.07423 c 0,0 0.43359,-8.91797 6.02734,-19.85548 5.59766,-10.937496 15.48437,-16.273436 15.48437,-16.273436 0,0 -0.87109,9.765616 -6.82421,21.41406 -5.95313,11.652356 -14.6875,14.714856 -14.6875,14.714856 z m 0,0"
     fill-opacity="1"
     fill-rule="nonzero"
     id="path30"
     style="fill:#ffffff" />
  <path
     fill="#051d40"
     d="m 217.32031,83.46875 c 0,0 -0.76953,-8.890626 3.30079,-20.484376 4.0664,-11.58984 13.15234,-18.20703 13.15234,-18.20703 0,0 0.45312,9.79688 -3.88672,22.13672 -4.32812,12.34766 -12.56641,16.554686 -12.56641,16.554686 z m 0,0"
     fill-opacity="1"
     fill-rule="nonzero"
     id="path31"
     style="fill:#ffffff" />
  <path
     fill="#051d40"
     d="m 213.63672,65.937504 c 0,0 -4.08203,-7.9336 -4.71484,-20.20313 -0.62891,-12.26953 5.26562,-21.83594 5.26562,-21.83594 0,0 4.13281,8.89063 4.8086,21.95313 0.67187,13.07031 -5.35938,20.08594 -5.35938,20.08594 z m 0,0"
     fill-opacity="1"
     fill-rule="nonzero"
     id="path32"
     style="fill:#ffffff" />
  <path
     fill="#051d40"
     d="m 203.57422,44.843754 c 0,0 -5.31641,-7.16797 -7.93359,-19.17188 -2.61328,-11.999998 1.64843,-22.4023418 1.64843,-22.4023418 0,0 5.51954,8.1015618 8.3086,20.8867218 2.78906,12.78125 -2.02344,20.6875 -2.02344,20.6875 z m 0,0"
     fill-opacity="1"
     fill-rule="nonzero"
     id="path33"
     style="fill:#ffffff" />
  <path
     fill="#051d40"
     d="m 213.03906,98.632814 c 0,0 -6.65234,-5.95313 -11.62109,-17.19141 -4.96875,-11.23437 -2.87891,-22.27734 -2.87891,-22.27734 0,0 7.03907,6.83203 12.33204,18.79297 5.28906,11.964836 2.16796,20.67578 2.16796,20.67578 z m 0,0"
     fill-opacity="1"
     fill-rule="nonzero"
     id="path34"
     style="fill:#ffffff" />
  <path
     fill="#051d40"
     d="m 205.6875,58.472654 c 0,0 -8.49609,-2.73437 -17.60547,-10.97265 -9.11718,-8.23828 -11.69922,-19.17578 -11.69922,-19.17578 0,0 9.20313,3.3789 18.91016,12.14843 9.70313,8.77344 10.39453,18 10.39453,18 z m 0,0"
     fill-opacity="1"
     fill-rule="nonzero"
     id="path35"
     style="fill:#ffffff" />
  <g
     clip-path="url(#2fd1ec70d5)"
     id="g36"
     transform="translate(-67.023437,-15.601562)"
     style="fill:#ffffff">
    <path
       fill="#051d40"
       d="m 260.15234,49.496094 c 0,0 -8.03906,-3.882813 -15.92578,-13.289063 -7.89453,-9.417969 -8.94922,-20.605469 -8.94922,-20.605469 0,0 8.65625,4.609376 17.0586,14.632813 8.40625,10.027344 7.8164,19.261719 7.8164,19.261719 z m 0,0"
       fill-opacity="1"
       fill-rule="nonzero"
       id="path36"
       style="fill:#ffffff" />
  </g>
  <g
     clip-path="url(#395d24d4f3)"
     id="g37"
     transform="translate(-67.023437,-15.601562)"
     style="fill:#ffffff">
    <path
       fill="#2d4cd9"
       d="m 242.90234,87.445312 c -4.07031,0 -7.37109,3.300782 -7.37109,7.375 0,2.628907 1.375,4.933594 3.44922,6.238278 l -3.375,3.375 c -4.40235,4.40235 -11.9375,1.54297 -12.3125,-4.671871 l -0.82813,-13.789063 c 0,0 0.004,0 0.004,0 4.07422,0 7.375,-3.300781 7.375,-7.375 0,-4.074218 -3.30078,-7.371094 -7.375,-7.371094 -4.07422,0 -7.37109,3.296876 -7.37109,7.371094 0,2.910156 1.6875,5.429688 4.13281,6.628906 l -4.89063,7.386719 c -5.0039,7.558599 -16.46093,6.269531 -19.66406,-2.207031 l -6.45703,-17.097656 c 5.36328,-0.371094 9.60156,-4.835938 9.60156,-10.296875 0,-5.460938 -4.62109,-10.324219 -10.32031,-10.324219 -5.69922,0 -10.32031,4.621094 -10.32031,10.320312 0,5.390626 4.1289,9.8125 9.39843,10.28125 l -6.46484,17.113282 c -3.20312,8.480468 -14.66016,9.765626 -19.66406,2.210937 l -4.83985,-7.3125 c 2.53516,-1.167969 4.29688,-3.726562 4.29688,-6.703125 0,-4.070312 -3.30078,-7.371094 -7.375,-7.371094 -4.07422,0 -7.375,3.296876 -7.375,7.371094 0,4.074219 3.19141,7.257813 7.17187,7.367188 l -0.83203,13.796875 c -0.375,6.214841 -7.91015,9.074221 -12.3125,4.671871 l -3.29297,-3.29296 c 2.14454,-1.289068 3.58204,-3.636724 3.58204,-6.320318 0,-4.074218 -3.30079,-7.375 -7.375,-7.375 -4.07422,0 -7.375,3.300782 -7.375,7.375 0,4.070313 3.30078,7.371098 7.375,7.371098 0.53515,0 1.05468,-0.0586 1.55859,-0.16407 l 9.5,33.34375 c 19.37891,-4.42187 44.23828,-4 44.23828,-4 0,0 24.85938,-0.42187 44.23828,4 l 9.51563,-33.39062 c 0.5625,0.14062 1.14843,0.21484 1.75781,0.21484 4.07031,0 7.375,-3.300779 7.375,-7.374998 0,-4.074218 -3.30078,-7.375 -7.375,-7.375 z m 0,0"
       fill-opacity="1"
       fill-rule="nonzero"
       id="path37"
       style="fill:#ffffff" />
  </g>
  <path
     fill="#2d4cd9"
     d="m 161.8711,127.35157 c 0,-1.60156 0.61718,-3.05859 1.625,-4.14844 -0.49219,-0.36328 -1.07813,-0.61719 -1.73438,-0.70312 -27.54687,-3.59766 -55.44531,-3.59766 -82.992192,0 -0.65625,0.0859 -1.24609,0.33984 -1.73047,0.70312 1.00391,1.08985 1.6211,2.54688 1.6211,4.14844 0,0.76172 -0.13672,1.48828 -0.39063,2.15625 0.45313,0.125 0.9375,0.16016 1.42969,0.0977 26.929692,-3.51954 54.203132,-3.51954 81.136722,0 0.49219,0.0625 0.97656,0.0273 1.42969,-0.0977 -0.25391,-0.66797 -0.39453,-1.39453 -0.39453,-2.15625 z m 0,0"
     fill-opacity="1"
     fill-rule="nonzero"
     id="path38"
     style="fill:#ffffff" />
  <g
     clip-path="url(#a2cad1c2e3)"
     id="g39"
     transform="translate(-67.023437,-15.601562)"
     style="fill:#ffffff">
    <path
       fill="#2d4cd9"
       d="m 229.31641,148.00781 c 0,0.0781 -0.0664,0.15235 -0.20313,0.23047 -0.13672,0.0742 -0.33594,0.14844 -0.60547,0.22266 -0.26953,0.0742 -0.60547,0.14843 -1.0039,0.22265 -0.40235,0.0703 -0.86719,0.14453 -1.39454,0.21485 -0.52734,0.0664 -1.11718,0.13672 -1.76953,0.20312 -0.64843,0.0664 -1.35547,0.13281 -2.125,0.19531 -0.76562,0.0625 -1.58593,0.125 -2.46093,0.1836 -0.875,0.0586 -1.80079,0.11328 -2.77735,0.16797 -0.97656,0.0547 -1.99609,0.10547 -3.0625,0.15234 -1.0664,0.0469 -2.17578,0.0937 -3.32422,0.13672 -1.14453,0.043 -2.32812,0.082 -3.54297,0.11719 -1.21875,0.0352 -2.46484,0.0664 -3.73828,0.0977 -1.27734,0.0273 -2.57422,0.0547 -3.89453,0.0742 -1.32031,0.0234 -2.65625,0.043 -4.01172,0.0547 -1.35156,0.0156 -2.71484,0.0273 -4.08984,0.0352 -1.37109,0.008 -2.75,0.0117 -4.12891,0.0117 -1.3789,0 -2.7539,-0.004 -4.1289,-0.0117 -1.3711,-0.008 -2.73438,-0.0195 -4.08985,-0.0352 -1.35156,-0.0117 -2.6914,-0.0312 -4.01172,-0.0547 -1.32031,-0.0195 -2.61718,-0.0469 -3.89062,-0.0742 -1.27734,-0.0312 -2.52344,-0.0625 -3.73828,-0.0977 -1.21875,-0.0352 -2.39844,-0.0742 -3.54688,-0.11719 -1.14843,-0.043 -2.2539,-0.0898 -3.32031,-0.13672 -1.06641,-0.0469 -2.08984,-0.0977 -3.0625,-0.15234 -0.97656,-0.0547 -1.90234,-0.10938 -2.77734,-0.16797 -0.875,-0.0586 -1.69922,-0.1211 -2.46485,-0.1836 -0.76562,-0.0625 -1.47265,-0.1289 -2.125,-0.19531 -0.64843,-0.0664 -1.23828,-0.13672 -1.76953,-0.20312 -0.52734,-0.0703 -0.99219,-0.14453 -1.39062,-0.21485 -0.40235,-0.0742 -0.73438,-0.14843 -1.00391,-0.22265 -0.26953,-0.0742 -0.47266,-0.14844 -0.60937,-0.22266 -0.13282,-0.0781 -0.20313,-0.15234 -0.20313,-0.23047 0,-0.0742 0.0703,-0.14844 0.20313,-0.22656 0.13671,-0.0742 0.33984,-0.14844 0.60937,-0.22266 0.26953,-0.0742 0.60156,-0.14843 1.00391,-0.22265 0.39843,-0.0703 0.86328,-0.14453 1.39062,-0.21485 0.53125,-0.0703 1.1211,-0.13672 1.76953,-0.20312 0.65235,-0.0664 1.35938,-0.13281 2.125,-0.19531 0.76563,-0.0625 1.58985,-0.125 2.46485,-0.1836 0.875,-0.0586 1.80078,-0.11328 2.77734,-0.16797 0.97266,-0.0547 1.99609,-0.10547 3.0625,-0.15234 1.06641,-0.0508 2.17188,-0.0937 3.32031,-0.13672 1.14844,-0.043 2.32813,-0.082 3.54688,-0.11719 1.21484,-0.0352 2.46094,-0.0664 3.73828,-0.0977 1.27344,-0.0273 2.57031,-0.0547 3.89062,-0.0742 1.32032,-0.0234 2.66016,-0.043 4.01172,-0.0586 1.35547,-0.0117 2.71875,-0.0234 4.08985,-0.0312 1.375,-0.008 2.75,-0.0117 4.1289,-0.0117 1.37891,0 2.75782,0.004 4.12891,0.0117 1.375,0.008 2.73828,0.0195 4.08984,0.0312 1.35547,0.0156 2.69141,0.0352 4.01172,0.0586 1.32031,0.0195 2.61719,0.0469 3.89453,0.0742 1.27344,0.0312 2.51953,0.0625 3.73828,0.0977 1.21485,0.0352 2.39844,0.0742 3.54297,0.11719 1.14844,0.043 2.25782,0.0859 3.32422,0.13672 1.06641,0.0469 2.08594,0.0977 3.0625,0.15234 0.97656,0.0547 1.90235,0.10938 2.77735,0.16797 0.875,0.0586 1.69531,0.1211 2.46093,0.1836 0.76953,0.0625 1.47657,0.1289 2.125,0.19531 0.65235,0.0664 1.24219,0.13281 1.76953,0.20312 0.52735,0.0703 0.99219,0.14453 1.39454,0.21485 0.39843,0.0742 0.73437,0.14843 1.0039,0.22265 0.26953,0.0742 0.46875,0.14844 0.60547,0.22266 0.13672,0.0781 0.20313,0.15234 0.20313,0.22656 z m 0,0"
       fill-opacity="1"
       fill-rule="nonzero"
       id="path39"
       style="fill:#ffffff" />
  </g>
  <g
     fill="#051d40"
     fill-opacity="1"
     id="g102">
    <g
       transform="translate(163.95943,314.81506)"
       id="g101">
      <g
         id="g100" />
    </g>
  </g>
  <g
     fill="#051d40"
     fill-opacity="1"
     id="g129">
    <g
       transform="translate(244.65621,314.81506)"
       id="g128">
      <g
         id="g127" />
    </g>
  </g>
  <g
     fill="#051d40"
     fill-opacity="1"
     id="g138">
    <g
       transform="translate(270.53888,314.81506)"
       id="g137">
      <g
         id="g136" />
    </g>
  </g>
  <g
     fill="#051d40"
     fill-opacity="1"
     id="g168">
    <g
       transform="translate(129.71864,330.56506)"
       id="g167">
      <g
         id="g166" />
    </g>
  </g>
  <g
     fill="#051d40"
     fill-opacity="1"
     id="g177">
    <g
       transform="translate(156.73086,330.56506)"
       id="g176">
      <g
         id="g175" />
    </g>
  </g>
  <g
     fill="#051d40"
     fill-opacity="1"
     id="g186">
    <g
       transform="translate(184.90263,330.56506)"
       id="g185">
      <g
         id="g184" />
    </g>
  </g>
  <g
     fill="#051d40"
     fill-opacity="1"
     id="g204">
    <g
       transform="translate(243.34532,330.56506)"
       id="g203">
      <g
         id="g202" />
    </g>
  </g>
</svg>
