<?xml version="1.0" standalone="no"?>
<!DOCTYPE svg PUBLIC "-//W3C//DTD SVG 20010904//EN"
 "http://www.w3.org/TR/2001/REC-SVG-20010904/DTD/svg10.dtd">
<svg version="1.0" xmlns="http://www.w3.org/2000/svg"
 width="1280.000000pt" height="1280.000000pt" viewBox="0 0 1280.000000 1280.000000"
 preserveAspectRatio="xMidYMid meet">
<metadata>
Created by potrace 1.15, written by Peter Selinger 2001-2017
</metadata>
<g transform="translate(0.000000,1280.000000) scale(0.100000,-0.100000)"
fill="#000000" stroke="none">
<path d="M2800 12679 c-282 -20 -586 -121 -833 -277 -380 -238 -672 -558 -857
-937 -111 -225 -159 -393 -181 -624 -26 -272 40 -576 179 -821 48 -85 5566
-8598 5733 -8845 271 -400 570 -673 934 -852 584 -286 1260 -251 1968 103 169
85 240 128 382 234 621 461 981 960 1103 1530 24 115 26 144 27 355 0 248 -7
299 -66 522 -54 206 -165 461 -292 669 -30 49 -391 607 -803 1239 -413 633
-1395 2142 -2183 3355 -1045 1607 -1447 2218 -1483 2252 -189 182 -538 23
-540 -246 0 -42 6 -78 20 -108 18 -41 1534 -2376 3684 -5676 406 -623 758
-1168 783 -1211 105 -183 195 -407 232 -581 14 -66 18 -128 17 -280 0 -177 -3
-204 -26 -290 -49 -181 -135 -350 -268 -528 -129 -174 -415 -434 -640 -584
-165 -109 -437 -233 -630 -287 -207 -57 -465 -72 -643 -37 -361 70 -687 301
-969 686 -94 128 -5754 8862 -5792 8938 -20 39 -48 111 -63 159 -23 78 -26
104 -26 233 0 188 25 289 118 475 177 354 508 655 846 769 222 74 491 75 708
1 167 -56 342 -177 451 -310 77 -93 4329 -6652 4396 -6780 163 -310 158 -541
-16 -715 -98 -98 -320 -237 -450 -282 -218 -75 -444 16 -625 252 -23 30 -644
987 -1380 2125 -1519 2350 -1500 2322 -1551 2363 -111 92 -296 81 -411 -23
-96 -86 -137 -220 -101 -327 16 -44 2808 -4374 2907 -4508 201 -269 455 -442
731 -497 98 -19 301 -19 411 1 257 46 571 203 801 400 265 226 418 544 418
864 0 229 -81 515 -210 744 -70 123 -4301 6647 -4371 6738 -229 302 -568 512
-950 590 -89 18 -311 42 -364 38 -11 0 -67 -4 -125 -9z"/>
</g>
</svg>
